<svg width="352" height="262" viewBox="0 0 352 262" fill="none" xmlns="http://www.w3.org/2000/svg">
<rect width="352" height="262" rx="8" fill="#120E21"/>
<rect x="123.786" y="30.786" width="103.758" height="199.655" rx="7.0744" stroke="url(#paint0_linear_697_13959)" stroke-width="1.57209"/>
<rect x="127.952" y="33.3801" width="95.4258" height="192.895" rx="6.05254" stroke="url(#paint1_linear_697_13959)" stroke-width="0.471626"/>
<rect x="157.586" y="36.2883" width="40.8743" height="9.43253" rx="4.71626" fill="url(#paint2_linear_697_13959)"/>
<rect x="151.298" y="218.651" width="53.451" height="3.14418" rx="1.57209" fill="url(#paint3_linear_697_13959)"/>
<circle cx="176.451" cy="130.614" r="33.0139" fill="url(#paint4_linear_697_13959)"/>
<path d="M161.98 137.066C161.61 135.686 160.191 134.867 158.811 135.237C157.431 135.607 156.611 137.025 156.981 138.406L161.98 137.066ZM196.968 138.406C197.337 137.025 196.518 135.607 195.138 135.237C193.758 134.867 192.339 135.686 191.969 137.066L196.968 138.406ZM165.654 120.679C164.538 119.786 162.91 119.967 162.018 121.083C161.125 122.199 161.306 123.827 162.422 124.72L165.654 120.679ZM176.974 133.048L175.358 135.069L176.974 136.362L178.591 135.069L176.974 133.048ZM191.527 124.72C192.643 123.827 192.824 122.199 191.931 121.083C191.039 119.967 189.411 119.786 188.295 120.679L191.527 124.72ZM179.562 109.763C179.562 108.334 178.403 107.175 176.974 107.175C175.546 107.175 174.387 108.334 174.387 109.763L179.562 109.763ZM156.981 138.406C158.161 142.807 160.759 146.696 164.374 149.47L167.524 145.364C164.813 143.284 162.864 140.367 161.98 137.066L156.981 138.406ZM164.374 149.47C167.989 152.243 172.418 153.747 176.974 153.747V148.572C173.557 148.572 170.235 147.445 167.524 145.364L164.374 149.47ZM176.974 153.747C181.531 153.747 185.96 152.243 189.575 149.47L186.425 145.364C183.714 147.445 180.392 148.572 176.974 148.572V153.747ZM189.575 149.47C193.19 146.696 195.788 142.807 196.968 138.406L191.969 137.066C191.085 140.367 189.136 143.284 186.425 145.364L189.575 149.47ZM162.422 124.72L175.358 135.069L178.591 131.028L165.654 120.679L162.422 124.72ZM178.591 135.069L191.527 124.72L188.295 120.679L175.358 131.028L178.591 135.069ZM179.562 133.048L179.562 109.763L174.387 109.763L174.387 133.048L179.562 133.048Z" fill="#1B1A29"/>
<defs>
<linearGradient id="paint0_linear_697_13959" x1="175.665" y1="30" x2="175.665" y2="231.227" gradientUnits="userSpaceOnUse">
<stop stop-color="#30F0AF"/>
<stop offset="1" stop-color="#08CDDA"/>
</linearGradient>
<linearGradient id="paint1_linear_697_13959" x1="175.665" y1="33.1443" x2="175.665" y2="226.511" gradientUnits="userSpaceOnUse">
<stop stop-color="#30F0AF"/>
<stop offset="1" stop-color="#08CDDA"/>
</linearGradient>
<linearGradient id="paint2_linear_697_13959" x1="152.136" y1="36.2883" x2="178.621" y2="43.5368" gradientUnits="userSpaceOnUse">
<stop stop-color="#30F0AF"/>
<stop offset="1" stop-color="#08CDDA"/>
</linearGradient>
<linearGradient id="paint3_linear_697_13959" x1="144.171" y1="218.651" x2="161.464" y2="237.218" gradientUnits="userSpaceOnUse">
<stop stop-color="#30F0AF"/>
<stop offset="1" stop-color="#08CDDA"/>
</linearGradient>
<linearGradient id="paint4_linear_697_13959" x1="176.451" y1="97.5999" x2="176.451" y2="163.628" gradientUnits="userSpaceOnUse">
<stop stop-color="#30F0AF"/>
<stop offset="1" stop-color="#08CDDA"/>
</linearGradient>
</defs>
</svg>
