<svg width="24" height="24" viewBox="0 0 24 24" fill="none" xmlns="http://www.w3.org/2000/svg">
<path d="M16.9252 12.6265L16.9252 12.6265L16.9252 12.6367C16.9271 14.4338 17.8712 16.1217 19.3617 17.0444C19.0933 17.7691 18.7382 18.4567 18.3044 19.091L18.2992 19.0987L18.2941 19.1065C17.8909 19.7285 17.5261 20.264 17.1235 20.6517C16.7355 21.0254 16.368 21.2073 15.9568 21.2142L15.9515 21.2143C15.4919 21.2252 15.1998 21.0983 14.7443 20.8983C14.2691 20.6897 13.6726 20.4324 12.7711 20.4324C11.8738 20.4324 11.2742 20.6686 10.7829 20.8803C10.755 20.8923 10.7277 20.9041 10.701 20.9156C10.2693 21.1022 9.9811 21.2267 9.55275 21.2453C9.22053 21.2575 8.85485 21.0906 8.41726 20.6671C7.98023 20.2441 7.57403 19.6655 7.15648 19.0499C6.39057 17.8949 5.69688 16.2437 5.40266 14.5235C5.10712 12.7955 5.22909 11.0907 5.97582 9.75752L5.9759 9.75757L5.98152 9.74715C6.65846 8.49274 7.95264 7.68481 9.3221 7.63742C9.7824 7.62873 10.2623 7.79017 10.8068 8.01193C10.8696 8.03747 10.935 8.06458 11.0019 8.09232C11.2023 8.17532 11.4162 8.26394 11.6118 8.33319C11.8724 8.42543 12.1898 8.51767 12.5157 8.51767C12.8539 8.51767 13.1994 8.40375 13.4692 8.30336C13.6163 8.2486 13.8042 8.17197 13.9878 8.09709C14.1228 8.04204 14.2555 7.98794 14.368 7.94417C14.9963 7.69956 15.587 7.53031 16.1422 7.59041L16.1705 7.59348L16.199 7.5944C17.1231 7.62421 18.0295 8.02943 18.6994 8.6974C17.6028 9.68213 16.944 11.122 16.9252 12.6265ZM14.6597 4.73213L14.6596 4.73206L14.6516 4.74233C14.2698 5.23199 13.7371 5.58301 13.1583 5.74931C13.2651 5.10843 13.5417 4.49945 13.956 4.01329L13.9562 4.01306C14.3651 3.53278 14.8795 3.17295 15.448 2.95822C15.3428 3.60764 15.0726 4.22102 14.6597 4.73213Z" fill="url(#paint0_linear_701_5030)" stroke="url(#paint1_linear_701_5030)" stroke-width="1.50802"/>
<defs>
<linearGradient id="paint0_linear_701_5030" x1="20.2792" y1="1.99998" x2="4.34862" y2="2.12129" gradientUnits="userSpaceOnUse">
<stop stop-color="#1AF7A9"/>
<stop offset="1" stop-color="#08CDDA"/>
</linearGradient>
<linearGradient id="paint1_linear_701_5030" x1="20.2792" y1="1.99998" x2="4.34862" y2="2.12129" gradientUnits="userSpaceOnUse">
<stop stop-color="#1AF7A9"/>
<stop offset="1" stop-color="#08CDDA"/>
</linearGradient>
</defs>
</svg>
