<svg width="40" height="40" viewBox="0 0 40 40" fill="none" xmlns="http://www.w3.org/2000/svg">
<g clip-path="url(#clip0_706_3938)">
<g filter="url(#filter0_d_706_3938)">
<circle cx="20" cy="20" r="19.75" fill="#171423" fill-opacity="0.32" stroke="#383846" stroke-width="0.5"/>
<g clip-path="url(#clip1_706_3938)">
<path d="M17.1107 22.43L16.8074 26.6955C17.2413 26.6955 17.4292 26.5091 17.6546 26.2853L19.6888 24.3412L23.9039 27.4281C24.677 27.8589 25.2216 27.632 25.4302 26.7169L28.197 13.7522L28.1977 13.7514C28.443 12.6086 27.7845 12.1618 27.0313 12.4421L10.7681 18.6686C9.65817 19.0994 9.67498 19.7182 10.5794 19.9985L14.7373 21.2918L24.3951 15.2486C24.8496 14.9477 25.2629 15.1142 24.923 15.4152L17.1107 22.43Z" fill="#F0F0F0"/>
</g>
</g>
</g>
<defs>
<filter id="filter0_d_706_3938" x="-48" y="-44" width="136" height="136" filterUnits="userSpaceOnUse" color-interpolation-filters="sRGB">
<feFlood flood-opacity="0" result="BackgroundImageFix"/>
<feColorMatrix in="SourceAlpha" type="matrix" values="0 0 0 0 0 0 0 0 0 0 0 0 0 0 0 0 0 0 127 0" result="hardAlpha"/>
<feOffset dy="4"/>
<feGaussianBlur stdDeviation="24"/>
<feComposite in2="hardAlpha" operator="out"/>
<feColorMatrix type="matrix" values="0 0 0 0 0.435294 0 0 0 0 0.352941 0 0 0 0 0.752941 0 0 0 0.12 0"/>
<feBlend mode="normal" in2="BackgroundImageFix" result="effect1_dropShadow_706_3938"/>
<feBlend mode="normal" in="SourceGraphic" in2="effect1_dropShadow_706_3938" result="shape"/>
</filter>
<clipPath id="clip0_706_3938">
<rect width="40" height="40" fill="white"/>
</clipPath>
<clipPath id="clip1_706_3938">
<rect width="18.3333" height="18.3333" fill="white" transform="translate(9.91699 10.8335)"/>
</clipPath>
</defs>
</svg>
