<svg width="138" height="137" viewBox="0 0 138 137" fill="none" xmlns="http://www.w3.org/2000/svg">
<path fill-rule="evenodd" clip-rule="evenodd" d="M68.9291 86.584C81.5984 86.584 91.869 76.3135 91.869 63.6441C91.869 58.3851 90.0993 53.5394 87.123 49.6701L80.9385 55.8094C82.4107 58.0614 83.2665 60.7528 83.2665 63.6441C83.2665 71.5625 76.8474 77.9815 68.9291 77.9815C61.0108 77.9815 54.5917 71.5625 54.5917 63.6441C54.5917 60.6326 55.5202 57.838 57.1065 55.5308L50.9394 49.4087C47.84 53.3201 45.9893 58.266 45.9893 63.6441C45.9893 76.3135 56.2598 86.584 68.9291 86.584Z" fill="url(#paint0_linear_701_4994)"/>
<path fill-rule="evenodd" clip-rule="evenodd" d="M68.9287 75.259C75.3134 75.259 80.4893 70.0831 80.4893 63.6983C80.4893 61.6008 79.9307 59.6337 78.9541 57.9377L75.699 61.169C75.9932 61.9562 76.154 62.8085 76.154 63.6983C76.154 67.6888 72.9191 70.9237 68.9287 70.9237C64.9382 70.9237 61.7033 67.6888 61.7033 63.6983C61.7033 62.7444 61.8881 61.8337 62.2239 61L58.99 57.7897C57.9598 59.5188 57.368 61.5394 57.368 63.6983C57.368 70.0831 62.5439 75.259 68.9287 75.259Z" fill="url(#paint1_linear_701_4994)"/>
<circle cx="68.9902" cy="64.7416" r="2.55559" fill="url(#paint2_linear_701_4994)"/>
<g opacity="0.24" filter="url(#filter0_f_701_4994)">
<rect x="48.2588" y="47.9268" width="41.4815" height="41.4815" fill="url(#paint3_linear_701_4994)"/>
</g>
<path d="M31.94 122.006C30.4556 122.006 29.1444 121.699 28.0067 121.086C26.8689 120.473 25.9756 119.615 25.3267 118.513C24.6867 117.402 24.3667 116.099 24.3667 114.606V102.419L26.7667 102.406V114.406C26.7667 115.313 26.9178 116.104 27.22 116.779C27.5311 117.446 27.94 118.002 28.4467 118.446C28.9533 118.89 29.5089 119.224 30.1133 119.446C30.7267 119.659 31.3356 119.766 31.94 119.766C32.5533 119.766 33.1667 119.655 33.78 119.433C34.3933 119.21 34.9489 118.882 35.4467 118.446C35.9533 118.002 36.3578 117.442 36.66 116.766C36.9622 116.09 37.1133 115.304 37.1133 114.406V102.406H39.5133V114.606C39.5133 116.09 39.1889 117.388 38.54 118.499C37.9 119.61 37.0111 120.473 35.8733 121.086C34.7356 121.699 33.4244 122.006 31.94 122.006ZM42.7135 121.593L42.7269 119.459L51.2469 111.793C51.958 111.153 52.4335 110.548 52.6735 109.979C52.9224 109.402 53.0469 108.81 53.0469 108.206C53.0469 107.468 52.878 106.802 52.5402 106.206C52.2024 105.61 51.7402 105.139 51.1535 104.793C50.5758 104.446 49.918 104.273 49.1802 104.273C48.4158 104.273 47.7358 104.455 47.1402 104.819C46.5447 105.175 46.0735 105.65 45.7269 106.246C45.3891 106.842 45.2247 107.49 45.2335 108.193H42.8069C42.8069 106.984 43.0869 105.917 43.6469 104.993C44.2069 104.059 44.9669 103.33 45.9269 102.806C46.8958 102.273 47.9935 102.006 49.2202 102.006C50.4113 102.006 51.478 102.282 52.4202 102.833C53.3624 103.375 54.1047 104.117 54.6469 105.059C55.198 105.993 55.4735 107.05 55.4735 108.233C55.4735 109.068 55.3669 109.793 55.1535 110.406C54.9491 111.019 54.6291 111.588 54.1935 112.113C53.758 112.628 53.2113 113.179 52.5535 113.766L45.4735 120.126L45.1669 119.326H55.4735V121.593H42.7135ZM64.0021 121.606V102.406H69.9221C70.1176 102.406 70.4599 102.41 70.9488 102.419C71.4376 102.428 71.9043 102.464 72.3488 102.526C73.8332 102.722 75.0732 103.264 76.0688 104.153C77.0732 105.033 77.8288 106.153 78.3354 107.513C78.8421 108.873 79.0954 110.37 79.0954 112.006C79.0954 113.642 78.8421 115.139 78.3354 116.499C77.8288 117.859 77.0732 118.984 76.0688 119.873C75.0732 120.753 73.8332 121.29 72.3488 121.486C71.9043 121.539 71.4332 121.575 70.9354 121.593C70.4465 121.602 70.1088 121.606 69.9221 121.606H64.0021ZM66.4421 119.339H69.9221C70.2599 119.339 70.6376 119.33 71.0554 119.313C71.4732 119.286 71.8376 119.246 72.1488 119.193C73.1976 118.997 74.0465 118.557 74.6954 117.873C75.3443 117.188 75.8199 116.335 76.1221 115.313C76.4243 114.29 76.5754 113.188 76.5754 112.006C76.5754 110.797 76.4199 109.682 76.1088 108.659C75.8065 107.637 75.331 106.788 74.6821 106.113C74.0332 105.437 73.1888 105.006 72.1488 104.819C71.8376 104.757 71.4688 104.717 71.0421 104.699C70.6154 104.682 70.2421 104.673 69.9221 104.673H66.4421V119.339ZM82.1531 121.606V102.406H89.7398C89.9265 102.406 90.1487 102.415 90.4065 102.433C90.6642 102.442 90.9131 102.468 91.1531 102.513C92.1931 102.673 93.0642 103.028 93.7665 103.579C94.4776 104.13 95.0109 104.828 95.3665 105.673C95.722 106.508 95.8998 107.437 95.8998 108.459C95.8998 109.473 95.7176 110.402 95.3531 111.246C94.9976 112.082 94.4642 112.779 93.7531 113.339C93.0509 113.89 92.1842 114.246 91.1531 114.406C90.9131 114.442 90.6642 114.468 90.4065 114.486C90.1487 114.504 89.9265 114.513 89.7398 114.513H84.5265V121.606H82.1531ZM84.5265 112.259H89.6598C89.8287 112.259 90.0198 112.25 90.2331 112.233C90.4554 112.215 90.6642 112.184 90.8598 112.139C91.4731 111.997 91.9709 111.739 92.3531 111.366C92.7442 110.984 93.0287 110.539 93.2065 110.033C93.3842 109.517 93.4731 108.993 93.4731 108.459C93.4731 107.926 93.3842 107.406 93.2065 106.899C93.0287 106.384 92.7442 105.935 92.3531 105.553C91.9709 105.17 91.4731 104.913 90.8598 104.779C90.6642 104.726 90.4554 104.695 90.2331 104.686C90.0198 104.668 89.8287 104.659 89.6598 104.659H84.5265V112.259ZM98.5594 121.606V102.406H100.959L110.973 117.406V102.406H113.373V121.606H110.973L100.959 106.593V121.606H98.5594Z" fill="#DEDEDE"/>
<defs>
<filter id="filter0_f_701_4994" x="0.851379" y="0.519348" width="136.296" height="136.296" filterUnits="userSpaceOnUse" color-interpolation-filters="sRGB">
<feFlood flood-opacity="0" result="BackgroundImageFix"/>
<feBlend mode="normal" in="SourceGraphic" in2="BackgroundImageFix" result="shape"/>
<feGaussianBlur stdDeviation="23.7037" result="effect1_foregroundBlur_701_4994"/>
</filter>
<linearGradient id="paint0_linear_701_4994" x1="91.869" y1="86.584" x2="45.553" y2="86.0323" gradientUnits="userSpaceOnUse">
<stop stop-color="#1AF7A9"/>
<stop offset="1" stop-color="#08CDDA"/>
</linearGradient>
<linearGradient id="paint1_linear_701_4994" x1="80.4894" y1="75.2588" x2="57.1488" y2="74.9606" gradientUnits="userSpaceOnUse">
<stop stop-color="#1AF7A9"/>
<stop offset="1" stop-color="#08CDDA"/>
</linearGradient>
<linearGradient id="paint2_linear_701_4994" x1="71.5457" y1="62.186" x2="66.3857" y2="62.2358" gradientUnits="userSpaceOnUse">
<stop stop-color="#1AF7A9"/>
<stop offset="1" stop-color="#08CDDA"/>
</linearGradient>
<linearGradient id="paint3_linear_701_4994" x1="89.7403" y1="47.9267" x2="47.8623" y2="48.3309" gradientUnits="userSpaceOnUse">
<stop stop-color="#1AF7A9"/>
<stop offset="1" stop-color="#08CDDA"/>
</linearGradient>
</defs>
</svg>
